<?xml version="1.0" encoding="UTF-8"?>
<svg version="1.1" xmlns="http://www.w3.org/2000/svg" width="95" height="80">
<path d="M0 0 C31.35 0 62.7 0 95 0 C95 26.4 95 52.8 95 80 C63.65 80 32.3 80 0 80 C0 53.6 0 27.2 0 0 Z " fill="#FCFDFC" transform="translate(0,0)"/>
<path d="M0 0 C4.17674454 3.19813532 6.8879839 6.61113669 7.7109375 11.84375 C7.80079391 21.0652641 5.98130587 27.64478873 -0.1953125 34.61328125 C-2.09002264 36.78540714 -2.09002264 36.78540714 -1.3203125 39.55078125 C0.79176952 44.02839512 2.96577214 48.46684548 5.2421875 52.86328125 C1.9421875 52.86328125 -1.3578125 52.86328125 -4.7578125 52.86328125 C-6.4078125 49.89328125 -8.0578125 46.92328125 -9.7578125 43.86328125 C-10.75941406 44.34539062 -11.76101562 44.8275 -12.79296875 45.32421875 C-14.1352825 45.96252179 -15.47773804 46.60052675 -16.8203125 47.23828125 C-17.47708984 47.55539063 -18.13386719 47.8725 -18.81054688 48.19921875 C-25.80013084 51.50463777 -31.87510679 53.12669197 -39.6953125 52.98828125 C-40.37916016 52.97925781 -41.06300781 52.97023437 -41.76757812 52.9609375 C-43.43114537 52.93767083 -45.09452881 52.90181292 -46.7578125 52.86328125 C-46.4484375 52.10015625 -46.1390625 51.33703125 -45.8203125 50.55078125 C-45.07887657 48.67538448 -44.39553033 46.77643473 -43.7578125 44.86328125 C-44.7890625 44.94578125 -45.8203125 45.02828125 -46.8828125 45.11328125 C-52.19377096 44.77063877 -54.82952092 42.66302006 -58.6328125 39.11328125 C-60.35330913 35.67228799 -60.45939436 32.56682397 -59.7578125 28.86328125 C-56.02618443 19.79335192 -47.96938512 13.94185718 -39.3359375 9.9296875 C-32.36609593 7.04670758 -26.31846602 5.44324494 -18.7578125 5.86328125 C-21.76680561 7.46620281 -24.76980473 8.55861586 -28.0078125 9.61328125 C-36.97527915 12.84156924 -42.68561629 18.12518659 -48.1328125 25.80078125 C-49.1311365 29.09525045 -48.58306502 31.56227116 -47.7578125 34.86328125 C-45.42727833 37.91708465 -43.57694713 39.31769059 -39.7578125 39.86328125 C-39.39816406 38.89068359 -39.39816406 38.89068359 -39.03125 37.8984375 C-37.35975495 33.91453672 -35.3910503 30.12365223 -33.3828125 26.30078125 C-32.99609375 25.54603516 -32.609375 24.79128906 -32.2109375 24.01367188 C-30.15661003 20.10148784 -28.30117008 16.63759367 -24.7578125 13.86328125 C-21.3203125 13.30078125 -21.3203125 13.30078125 -17.7578125 13.86328125 C-12.91089288 17.44076954 -10.45144711 22.60209706 -7.7578125 27.86328125 C-4.76675293 24.87222168 -4.56394282 22.11543056 -4.4453125 18.05078125 C-4.50895681 13.19259903 -5.42173975 10.55051955 -8.7578125 6.86328125 C-14.66586848 2.40209612 -19.07928233 1.66989782 -26.3203125 1.67578125 C-27.12645996 1.67513672 -27.93260742 1.67449219 -28.76318359 1.67382812 C-34.60764442 1.72553862 -40.10947693 2.27379988 -45.7578125 3.86328125 C-36.35538326 -7.30824617 -11.59606911 -7.49879136 0 0 Z " fill="#3DA444" transform="translate(62.7578125,21.13671875)"/>
<path d="M0 0 C4.20018773 3.63962109 7.62760486 8.0468199 8.3359375 13.6640625 C8.43223719 20.96357926 7.24264995 26.45679564 4 33 C3.67 33 3.34 33 3 33 C2.90203125 31.9378125 2.8040625 30.875625 2.703125 29.78125 C1.37197233 16.47928615 1.37197233 16.47928615 -6.125 5.75 C-13.58067993 -0.0717756 -21.72931894 -1.64750262 -31 -2 C-21.61935277 -8.25376482 -9.11950881 -5.32526062 0 0 Z " fill="#C5C5C5" transform="translate(74,13)"/>
<path d="M0 0 C1.32 0 2.64 0 4 0 C5.03307771 1.76371818 6.05112049 3.53625033 7.0625 5.3125 C7.63097656 6.29863281 8.19945313 7.28476562 8.78515625 8.30078125 C10 11 10 11 9 14 C3.25197419 18.90033716 -3.84963583 23.48097262 -11 26 C-11.99 25.67 -12.98 25.34 -14 25 C-11.48592381 20.71675909 -9.87685861 18.35468295 -5 17 C-6.32 16.67 -7.64 16.34 -9 16 C-6.03 10.72 -3.06 5.44 0 0 Z " fill="#F4FAF6" transform="translate(40,46)"/>
<path d="M0 0 C7.91995092 -0.49499693 13.73981472 0.35109946 20 5.4375 C23.38002465 9.88014109 22.38400855 15.72628256 22 21 C19.80182916 18.80182916 19.05580105 17.01781332 17.8125 14.1875 C14.50421372 7.47419392 10.40725579 4.82381937 3.5625 2.1875 C2.386875 1.795625 1.21125 1.40375 0 1 C0 0.67 0 0.34 0 0 Z " fill="#CACACA" transform="translate(66,3)"/>
<path d="M0 0 C-0.33 0.66 -0.66 1.32 -1 2 C-1.66 1.67 -2.32 1.34 -3 1 C-5.2922754 2.03761883 -7.47597786 3.12274251 -9.6875 4.3125 C-17.08323713 8.276488 -23.38652321 10.27634472 -31.9375 10.125 C-32.62134766 10.11597656 -33.30519531 10.10695313 -34.00976562 10.09765625 C-35.67333287 10.07438958 -37.33671631 10.03853167 -39 10 C-39 9.67 -39 9.34 -39 9 C-38.37996094 9.00902344 -37.75992188 9.01804687 -37.12109375 9.02734375 C-27.97393463 8.72110698 -20.97127265 5.12010449 -13 1 C-13 1.99 -13 2.98 -13 4 C-12.39671875 3.62746094 -11.7934375 3.25492187 -11.171875 2.87109375 C-10.37265625 2.39800781 -9.5734375 1.92492187 -8.75 1.4375 C-7.96109375 0.96183594 -7.1721875 0.48617187 -6.359375 -0.00390625 C-3.69155375 -1.13022151 -2.65498232 -1.0169313 0 0 Z " fill="#1E9644" transform="translate(55,64)"/>
<path d="M0 0 C0 0.33 0 0.66 0 1 C-4.62 1.33 -9.24 1.66 -14 2 C-13.34 2.33 -12.68 2.66 -12 3 C-12 3.66 -12 4.32 -12 5 C-12.82242188 5.04898437 -13.64484375 5.09796875 -14.4921875 5.1484375 C-21.47628184 5.6161944 -28.18034735 6.41439227 -35 8 C-26.81640783 -1.72336213 -11.39269643 -0.58126002 0 0 Z " fill="#74BE45" transform="translate(52,17)"/>
<path d="M0 0 C-3.06779949 1.61691079 -6.17105148 2.84020691 -9.4375 4 C-12.98977064 5.26478621 -16.50670681 6.57985903 -20 8 C-20 6.68 -20 5.36 -20 4 C-13.16088115 1.44672896 -7.33813334 -0.5644718 0 0 Z " fill="#6DBB4F" transform="translate(44,27)"/>
<path d="M0 0 C0.33 1.32 0.66 2.64 1 4 C-0.8125 5.0625 -0.8125 5.0625 -3 6 C-3.99 5.67 -4.98 5.34 -6 5 C-6 4.34 -6 3.68 -6 3 C-4.02 2.01 -2.04 1.02 0 0 Z " fill="#299B4D" transform="translate(37,67)"/>
<path d="M0 0 C0.625 1.875 0.625 1.875 1 4 C0.34 4.66 -0.32 5.32 -1 6 C-1.99 6 -2.98 6 -4 6 C-2.25 1.125 -2.25 1.125 0 0 Z " fill="#16933F" transform="translate(41,65)"/>
</svg>
